<svg width="145" height="32" xmlns="http://www.w3.org/2000/svg"><g fill="none"><path fill="#FFF" d="M.29.29v31.285h31.285V.29z"/><path d="M.29.29v31.285h31.285V.29H.29zm29.204 13.002c-.045.985-.358 2.193-.627 2.999-1.096 3.267-2.372 5.303-5.326 5.303-.872 0-2.417-.223-2.976-1.767l-.134-.358-.246.313a4.884 4.884 0 01-3.76 1.857c-1.119 0-2.036-.38-2.618-1.096l-.157-.202-.179.18c-.626.693-1.723 1.096-2.998 1.096-1.007 0-1.858-.336-2.44-.962l-.156-.18-.157.157c-.626.65-1.633.962-2.886.94-1.522-.045-2.44-.895-2.484-2.26-.045-2.126 2.014-6.624 2.886-7.989.56-.917 1.32-1.365 2.328-1.365.693 0 1.163.134 1.454.448.246.268.313.492.336 1.051l.022.716.38-.604c.918-1.454 2.417-1.656 3.894-1.656 1.03 0 1.947.38 2.305.963l.135.223.2-.156c.762-.65 1.858-1.007 3.044-1.007 1.298 0 2.26.335 2.82.962.134.157.224.246.336.492l.156.313.224-.268c.828-.985 1.97-1.477 3.379-1.477 1.119 0 1.97.291 2.506.873.694.693.783 1.723.739 2.461z" fill="#FFED00"/><path d="M.29.29v31.285h31.285V.29H.29zm30.1 14.21c-.134 1.142-.918 3.245-1.32 4.096-1.097 2.26-2.574 4.005-5.393 4.005-1.5 0-2.753-.492-3.469-1.41-1.052.94-2.372 1.41-3.804 1.41-1.097 0-2.059-.313-2.797-.895-.806.582-1.903.895-3.11.895-1.008 0-1.925-.268-2.641-.783-.784.515-1.835.783-3.044.761-2.014-.045-3.424-1.32-3.446-3.2-.045-2.462 2.036-7.004 3.021-8.57C5.102 9.6 6.221 8.95 7.608 8.95c1.5 0 2.037.425 2.305.962 1.142-.984 2.686-1.03 3.76-1.03 1.208 0 1.947.314 2.596.829.872-.537 1.902-.806 3.11-.806 1.544 0 2.685.358 3.49 1.142.94-.784 2.104-1.12 3.402-1.12 1.723 0 2.865.627 3.536 1.545.917 1.32.76 2.64.582 4.028z" fill="#E3000B"/><path d="M.067.067v31.71h31.71V.066H.066zm31.284.448V31.35H.515V.515H31.35z" fill="#000"/><path d="M30.232 9.6v-.224h.157c.112 0 .156.045.156.112 0 .045-.044.112-.134.112h-.179zm.515.448l-.09-.157c-.09-.134-.112-.157-.179-.18.135-.021.202-.111.202-.223 0-.134-.09-.224-.246-.224h-.403v.784h.156v-.314h.023c.067 0 .09 0 .134.045a.47.47 0 01.112.157l.067.134h.224v-.022zm-.38-1.007c.335 0 .604.268.604.604a.602.602 0 01-.605.604.602.602 0 01-.604-.604c0-.336.269-.604.604-.604zm0-.157a.755.755 0 00-.761.76c0 .426.335.762.76.762a.754.754 0 00.761-.761.755.755 0 00-.76-.761zm-4.14.806c-1.634 0-2.775.648-3.536 1.566a2.223 2.223 0 00-.358-.537c-.627-.716-1.634-1.052-2.999-1.052-1.32 0-2.417.403-3.2 1.074-.403-.649-1.342-1.074-2.484-1.074-1.499 0-3.11.202-4.095 1.768-.022-.56-.067-.85-.38-1.186-.38-.403-1.007-.515-1.611-.515-1.097 0-1.925.47-2.529 1.455-.873 1.387-2.954 5.908-2.91 8.123.023 1.41.985 2.439 2.686 2.484 1.343.022 2.372-.313 3.044-.985.604.65 1.499 1.03 2.595 1.03 1.209 0 2.44-.358 3.156-1.164.604.738 1.566 1.186 2.797 1.164a4.95 4.95 0 003.938-1.947c.515 1.365 1.79 1.924 3.178 1.924 3.066 0 4.408-2.103 5.527-5.438.246-.76.582-2.014.65-3.065.111-1.768-.627-3.625-3.47-3.625zM5.818 18.08c1.589-.268 1.992.291 1.947.828-.157 1.589-1.611 1.947-2.887 1.925-.917-.023-1.745-.448-1.768-1.5-.044-1.857 1.858-6.176 2.753-7.608.403-.671.917-1.007 1.723-1.007.76 0 .962.38.94.85-.023 1.231-2.036 5.035-2.708 6.512zm5.17-1.454c-.112.29-.314.872-.47 1.521.514-.134.917-.224 1.588-.201.761.022 1.253.336 1.253.962 0 1.522-1.7 1.97-2.864 1.97-1.298 0-2.417-.74-2.417-2.149 0-1.656.895-4.162 1.723-5.818 1.03-2.036 2.082-2.327 3.894-2.327.806 0 1.723.335 1.723 1.096 0 1.052-.873 1.432-1.768 1.5-.38.022-.94.044-1.298.022 0 0-.29.447-.604 1.23 1.634-.223 2.305.135 2.037 1.075-.358 1.275-1.455 1.342-2.798 1.119zm7.988-3.961c-.447 0-.716.268-.94.582-.47.67-1.499 3.311-1.656 4.386-.111.738.224.895.56.895.56 0 1.186-.605 1.41-1.59 0 0-1.074-.022-.784-.984.291-.917.828-1.119 1.746-1.163 1.79-.068 1.611 1.253 1.454 1.946-.47 2.283-2.08 4.118-4.386 4.118-1.566 0-2.55-.873-2.55-2.462 0-1.14.559-2.931 1.006-3.983.963-2.238 1.947-3.782 4.498-3.782 1.522 0 2.73.56 2.551 1.992-.134 1.052-.649 1.678-1.61 1.745-.27.023-1.366 0-1.008-1.051.202-.358.246-.65-.29-.65zm9.623 1.902c-.269 1.342-.873 2.931-1.544 4.117-1.075 1.925-2.372 2.193-3.514 2.193-1.141-.022-2.417-.425-2.439-2.193 0-1.253.537-3.043 1.007-4.207.806-2.126 1.634-3.849 4.23-3.804 3.043 0 2.506 2.708 2.26 3.894zm-2.149-1.343c-.022.806-1.23 4.05-1.633 4.767-.18.313-.38.559-.761.559-.313 0-.47-.224-.47-.492-.022-.739 1.32-4.409 1.768-4.99.201-.314.425-.359.694-.359.358.023.402.291.402.515zM47.792 23.6l.888-2.064h6.48l.888 2.064h3.48L52.472 7.472h-1.08L44.312 23.6h3.48zm6.24-4.728h-4.224l2.112-5.352 2.112 5.352zm13.128 5.016c2.352 0 4.176-1.176 5.16-2.952l-2.256-1.728c-.696.984-1.56 1.704-2.856 1.704-1.848 0-3.12-1.392-3.12-3.264 0-1.848 1.272-3.24 3.12-3.24 1.32 0 2.184.72 2.856 1.728l2.256-1.752c-.984-1.776-2.784-2.928-5.16-2.928-3.552 0-6.36 2.688-6.36 6.192 0 3.528 2.808 6.24 6.36 6.24zm13.248 0c2.352 0 4.176-1.176 5.16-2.952l-2.256-1.728c-.696.984-1.56 1.704-2.856 1.704-1.848 0-3.12-1.392-3.12-3.264 0-1.848 1.272-3.24 3.12-3.24 1.32 0 2.184.72 2.856 1.728l2.256-1.752c-.984-1.776-2.784-2.928-5.16-2.928-3.552 0-6.36 2.688-6.36 6.192 0 3.528 2.808 6.24 6.36 6.24zm13.224-.024c3.576 0 6.408-2.76 6.408-6.216 0-3.456-2.832-6.192-6.384-6.192-3.576 0-6.36 2.712-6.36 6.192s2.784 6.216 6.336 6.216zm.024-2.976c-1.776 0-3.072-1.344-3.072-3.216 0-1.896 1.296-3.264 3.072-3.264 1.752 0 3.072 1.392 3.072 3.264 0 1.848-1.32 3.216-3.072 3.216zm14.28 3c3.096 0 5.448-2.16 5.448-5.52V11.72h-3.24v6.912c0 1.392-.984 2.28-2.208 2.28-1.272 0-2.256-.888-2.256-2.28V11.72h-3.24v6.648c0 3.36 2.352 5.52 5.496 5.52zm11.784-.288v-6.936c0-1.368.936-2.304 2.256-2.304 1.32 0 2.208.936 2.208 2.304V23.6h3.216v-7.368c0-2.856-1.68-4.776-4.464-4.776-1.464 0-2.664.528-3.48 1.344v-1.08h-2.976V23.6h3.24zm16.2.288c.84 0 1.56-.12 2.232-.288v-2.712c-.624.048-1.152.096-1.536.096-1.488 0-2.208-.48-2.208-1.848v-4.68h3.36V11.72h-3.36v-3h-3.24v3h-1.872v2.736h1.872v4.968c0 3.048 1.824 4.464 4.752 4.464z" fill="#000"/></g></svg>