<?xml version="1.0" encoding="iso-8859-1"?>
<!-- Generator: Adobe Illustrator 16.0.0, SVG Export Plug-In . SVG Version: 6.00 Build 0)  -->
<!DOCTYPE svg PUBLIC "-//W3C//DTD SVG 1.1//EN" "http://www.w3.org/Graphics/SVG/1.1/DTD/svg11.dtd">
<svg version="1.1" id="Capa_1" xmlns="http://www.w3.org/2000/svg" xmlns:xlink="http://www.w3.org/1999/xlink" x="0px" y="0px"
	 width="336.643px" height="336.643px" viewBox="0 0 336.643 336.643" style="enable-background:new 0 0 336.643 336.643;"
	 xml:space="preserve">
<g>
	<path d="M157.618,327.478c5.908,12.226,15.501,12.22,21.397-0.012c25.299-52.481,86.896-180.42,88.812-185.743l0.324-0.886
		c3.837-10.959,6.028-22.689,6.028-34.969C274.18,47.411,226.79,0,168.331,0C109.859,0,62.463,47.402,62.463,105.868
		c0,8.656,1.156,17.021,3.113,25.076l0.108,0.447C68.393,142.269,131.86,274.167,157.618,327.478z M168.336,46.162
		c32.969,0,59.691,26.751,59.691,59.712c0,32.981-26.728,59.705-59.691,59.705c-32.984,0-59.711-26.73-59.711-59.705
		C108.631,72.913,135.352,46.162,168.336,46.162z"/>
</g>
<g>
</g>
<g>
</g>
<g>
</g>
<g>
</g>
<g>
</g>
<g>
</g>
<g>
</g>
<g>
</g>
<g>
</g>
<g>
</g>
<g>
</g>
<g>
</g>
<g>
</g>
<g>
</g>
<g>
</g>
</svg>
